<?xml version="1.0" standalone="no"?>
<!DOCTYPE svg PUBLIC "-//W3C//DTD SVG 1.1//EN" "http://www.w3.org/Graphics/SVG/1.1/DTD/svg11.dtd">

<svg width="600" height="250" version="1.1" xmlns="http://www.w3.org/2000/svg">
	<ellipse stroke="black" stroke-width="1" fill="none" cx="98.5" cy="196.5" rx="30" ry="30"/>
	<ellipse stroke="black" stroke-width="1" fill="none" cx="189.5" cy="196.5" rx="30" ry="30"/>
	<ellipse stroke="black" stroke-width="1" fill="none" cx="284.5" cy="196.5" rx="30" ry="30"/>
	<ellipse stroke="black" stroke-width="1" fill="none" cx="373.5" cy="196.5" rx="30" ry="30"/>
	<ellipse stroke="black" stroke-width="1" fill="none" cx="467.5" cy="196.5" rx="30" ry="30"/>
	<ellipse stroke="black" stroke-width="1" fill="none" cx="555.5" cy="196.5" rx="30" ry="30"/>
	<ellipse stroke="black" stroke-width="1" fill="none" cx="555.5" cy="196.5" rx="24" ry="24"/>
	<polygon stroke="black" stroke-width="1" points="128.5,196.5 159.5,196.5"/>
	<polygon fill="black" stroke-width="1" points="159.5,196.5 151.5,191.5 151.5,201.5"/>
	<text x="139.5" y="217.5" font-family="Times New Roman" font-size="20">1</text>
	<path stroke="black" stroke-width="1" fill="none" d="M 176.275,169.703 A 22.5,22.5 0 1 1 202.725,169.703"/>
	<text x="184.5" y="120.5" font-family="Times New Roman" font-size="20">1</text>
	<polygon fill="black" stroke-width="1" points="202.725,169.703 211.473,166.17 203.382,160.292"/>
	<polygon stroke="black" stroke-width="1" points="219.5,196.5 254.5,196.5"/>
	<polygon fill="black" stroke-width="1" points="254.5,196.5 246.5,191.5 246.5,201.5"/>
	<text x="232.5" y="217.5" font-family="Times New Roman" font-size="20">0</text>
	<polygon stroke="black" stroke-width="1" points="314.5,196.5 343.5,196.5"/>
	<polygon fill="black" stroke-width="1" points="343.5,196.5 335.5,191.5 335.5,201.5"/>
	<text x="324.5" y="217.5" font-family="Times New Roman" font-size="20">1</text>
	<path stroke="black" stroke-width="1" fill="none" d="M 360.275,169.703 A 22.5,22.5 0 1 1 386.725,169.703"/>
	<text x="358.5" y="120.5" font-family="Times New Roman" font-size="20">101</text>
	<polygon fill="black" stroke-width="1" points="386.725,169.703 395.473,166.17 387.382,160.292"/>
	<polygon stroke="black" stroke-width="1" points="403.5,196.5 437.5,196.5"/>
	<polygon fill="black" stroke-width="1" points="437.5,196.5 429.5,191.5 429.5,201.5"/>
	<text x="415.5" y="217.5" font-family="Times New Roman" font-size="20">1</text>
	<polygon stroke="black" stroke-width="1" points="497.5,196.5 525.5,196.5"/>
	<polygon fill="black" stroke-width="1" points="525.5,196.5 517.5,191.5 517.5,201.5"/>
	<text x="506.5" y="217.5" font-family="Times New Roman" font-size="20">0</text>
	<path stroke="black" stroke-width="1" fill="none" d="M 542.275,169.703 A 22.5,22.5 0 1 1 568.725,169.703"/>
	<text x="550.5" y="120.5" font-family="Times New Roman" font-size="20">1</text>
	<polygon fill="black" stroke-width="1" points="568.725,169.703 577.473,166.17 569.382,160.292"/>
	<polygon stroke="black" stroke-width="1" points="37.5,196.5 68.5,196.5"/>
	<polygon fill="black" stroke-width="1" points="68.5,196.5 60.5,191.5 60.5,201.5"/>
</svg>
